<mxfile host="65bd71144e">
    <diagram id="g3q8rk-if3WYDGcbHtvd" name="Page-1">
        <mxGraphModel dx="1168" dy="665" grid="1" gridSize="10" guides="1" tooltips="1" connect="1" arrows="1" fold="1" page="1" pageScale="1" pageWidth="827" pageHeight="1169" math="0" shadow="0">
            <root>
                <mxCell id="0"/>
                <mxCell id="1" parent="0"/>
                <mxCell id="29" style="edgeStyle=elbowEdgeStyle;rounded=0;elbow=vertical;html=1;exitX=0.5;exitY=0;exitDx=0;exitDy=0;exitPerimeter=0;entryX=1;entryY=0.5;entryDx=0;entryDy=0;entryPerimeter=0;endArrow=none;endFill=0;" edge="1" parent="1" source="5" target="15">
                    <mxGeometry relative="1" as="geometry"/>
                </mxCell>
                <mxCell id="5" value="" style="pointerEvents=1;verticalLabelPosition=bottom;shadow=0;dashed=0;align=center;html=1;verticalAlign=top;shape=mxgraph.electrical.signal_sources.signal_ground;" parent="1" vertex="1">
                    <mxGeometry x="472.5" y="370" width="45" height="30" as="geometry"/>
                </mxCell>
                <mxCell id="6" value="ADC" style="verticalLabelPosition=middle;shadow=0;dashed=0;align=center;html=1;verticalAlign=middle;shape=mxgraph.electrical.abstract.dac;rotation=0;labelPosition=center;horizontal=1;spacingRight=0;flipH=1;spacingLeft=7;" parent="1" vertex="1">
                    <mxGeometry x="540" y="242" width="70" height="46" as="geometry"/>
                </mxCell>
                <mxCell id="10" style="edgeStyle=none;html=1;exitX=1;exitY=0.5;exitDx=0;exitDy=0;exitPerimeter=0;entryX=0;entryY=0.5;entryDx=0;entryDy=0;endArrow=none;endFill=0;" parent="1" source="8" target="9" edge="1">
                    <mxGeometry relative="1" as="geometry"/>
                </mxCell>
                <mxCell id="8" value="A1" style="verticalLabelPosition=middle;shadow=0;dashed=0;align=center;html=1;verticalAlign=middle;shape=mxgraph.electrical.abstract.operational_amp_1;labelPosition=center;spacingLeft=0;spacingRight=16;" parent="1" vertex="1">
                    <mxGeometry x="200" y="220" width="98" height="90" as="geometry"/>
                </mxCell>
                <mxCell id="13" style="edgeStyle=none;html=1;exitX=1;exitY=0.5;exitDx=0;exitDy=0;entryX=0;entryY=0.5;entryDx=0;entryDy=0;entryPerimeter=0;endArrow=none;endFill=0;" edge="1" parent="1" source="9" target="12">
                    <mxGeometry relative="1" as="geometry"/>
                </mxCell>
                <mxCell id="9" value="10" style="verticalLabelPosition=middle;shadow=0;dashed=0;align=center;html=1;verticalAlign=middle;strokeWidth=1;shape=ellipse;perimeter=ellipsePerimeter;labelPosition=center;" parent="1" vertex="1">
                    <mxGeometry x="330" y="250" width="30" height="30" as="geometry"/>
                </mxCell>
                <mxCell id="34" style="edgeStyle=elbowEdgeStyle;rounded=0;elbow=vertical;html=1;exitX=1;exitY=0.5;exitDx=0;exitDy=0;exitPerimeter=0;endArrow=none;endFill=0;entryX=-0.037;entryY=0.522;entryDx=0;entryDy=0;entryPerimeter=0;" edge="1" parent="1" source="12" target="32">
                    <mxGeometry relative="1" as="geometry">
                        <mxPoint x="490" y="265.05555555555554" as="targetPoint"/>
                    </mxGeometry>
                </mxCell>
                <mxCell id="12" value="120k&lt;span style=&quot;text-align: left&quot;&gt;Î©&lt;/span&gt;" style="pointerEvents=1;verticalLabelPosition=bottom;shadow=0;dashed=0;align=center;html=1;verticalAlign=top;shape=mxgraph.electrical.resistors.resistor_2;" vertex="1" parent="1">
                    <mxGeometry x="376" y="257.5" width="75" height="15" as="geometry"/>
                </mxCell>
                <mxCell id="30" style="edgeStyle=elbowEdgeStyle;rounded=0;elbow=vertical;html=1;exitDx=0;exitDy=0;exitPerimeter=0;entryX=1;entryY=0.5;entryDx=0;entryDy=0;entryPerimeter=0;endArrow=none;endFill=0;startArrow=none;" edge="1" parent="1" source="32" target="6">
                    <mxGeometry relative="1" as="geometry"/>
                </mxCell>
                <mxCell id="15" value="22 nF" style="pointerEvents=1;verticalLabelPosition=bottom;shadow=0;dashed=0;align=center;html=1;verticalAlign=top;shape=mxgraph.electrical.capacitors.capacitor_1;rotation=90;horizontal=0;" vertex="1" parent="1">
                    <mxGeometry x="470" y="300" width="50" height="35" as="geometry"/>
                </mxCell>
                <mxCell id="32" value="" style="shape=waypoint;sketch=0;fillStyle=solid;size=6;pointerEvents=1;points=[];fillColor=none;resizable=0;rotatable=0;perimeter=centerPerimeter;snapToPoint=1;align=center;verticalAlign=middle;" vertex="1" parent="1">
                    <mxGeometry x="475" y="245" width="40" height="40" as="geometry"/>
                </mxCell>
                <mxCell id="33" value="" style="edgeStyle=elbowEdgeStyle;rounded=0;elbow=vertical;html=1;exitX=0;exitY=0.5;exitDx=0;exitDy=0;exitPerimeter=0;entryDx=0;entryDy=0;entryPerimeter=0;endArrow=none;endFill=0;" edge="1" parent="1" source="15" target="32">
                    <mxGeometry relative="1" as="geometry">
                        <mxPoint x="495" y="292.5" as="sourcePoint"/>
                        <mxPoint x="540" y="265" as="targetPoint"/>
                    </mxGeometry>
                </mxCell>
                <mxCell id="37" value="60.286 Hz" style="text;html=1;align=center;verticalAlign=middle;resizable=0;points=[];autosize=1;strokeColor=none;" vertex="1" parent="1">
                    <mxGeometry x="460" y="190" width="70" height="20" as="geometry"/>
                </mxCell>
            </root>
        </mxGraphModel>
    </diagram>
</mxfile>
